<svg xmlns="http://www.w3.org/2000/svg" width="100" height="100" viewBox="0 0 100 100">
  <path fill="#000000" d="M72.008556,51.2730568 L74.8332633,48.44951 C79.0555789,44.2289291 79.0555789,37.3878885 74.8332633,33.1673076 C70.6084508,28.9442308 63.7568047,28.9442308 59.5319921,33.1673076 L48.9307085,43.7642358 L38.4680079,33.3058337 C34.2431953,29.0827569 27.3915492,29.0827569 23.1667367,33.3058337 C18.9444211,37.5264146 18.9444211,44.3674552 23.1667367,48.5880361 L49.009553,74.4202351 L72.008556,51.2730568 Z M48.9307085,28.2110819 L51.7554158,25.3875351 C60.2756297,16.8708216 74.0896257,16.8708216 82.6098396,25.3875351 C91.1300535,33.9042485 91.1300535,47.7125692 82.6098396,56.2292826 L79.7851323,59.0528294 L53.7367869,85.2690871 C51.1485059,87.8740525 46.9385479,87.887578 44.3335824,85.299297 C44.3304304,85.2961652 34.682623,75.6523357 15.3901604,56.3678087 C6.86994653,47.8510953 6.86994653,34.0427745 15.3901604,25.5260611 C23.9103743,17.0093477 37.7243703,17.0093477 46.2445842,25.5260611 L48.9307085,28.2110819 Z"/>
</svg>
